<mxfile host="app.diagrams.net" agent="Mozilla/5.0 (Windows NT 10.0; Win64; x64) AppleWebKit/537.36 (KHTML, like Gecko) Chrome/131.0.0.0 Safari/537.36" version="26.0.3">
  <diagram name="Page-1" id="e7e014a7-5840-1c2e-5031-d8a46d1fe8dd">
    <mxGraphModel dx="1290" dy="522" grid="1" gridSize="10" guides="1" tooltips="1" connect="1" arrows="1" fold="1" page="1" pageScale="1" pageWidth="1169" pageHeight="826" background="none" math="0" shadow="0">
      <root>
        <mxCell id="0" />
        <mxCell id="1" parent="0" />
        <mxCell id="3" value="Система" style="swimlane;whiteSpace=wrap;startSize=23;" parent="1" vertex="1">
          <mxGeometry x="445" y="128" width="280" height="570" as="geometry" />
        </mxCell>
        <mxCell id="2jE7YgBl8K7fFeT1Dg3M-41" value="Форма для реєстрації" style="whiteSpace=wrap;html=1;" vertex="1" parent="3">
          <mxGeometry x="80" y="105" width="120" height="60" as="geometry" />
        </mxCell>
        <mxCell id="2" value="Сайт" style="swimlane;whiteSpace=wrap" parent="3" vertex="1">
          <mxGeometry x="-284.5" width="284.5" height="570" as="geometry" />
        </mxCell>
        <mxCell id="5" value="" style="ellipse;shape=startState;fillColor=#000000;strokeColor=#ff0000;" parent="2" vertex="1">
          <mxGeometry x="100" y="40" width="30" height="30" as="geometry" />
        </mxCell>
        <mxCell id="7" value="Зареєструватися" style="" parent="2" vertex="1">
          <mxGeometry x="60" y="110" width="110" height="50" as="geometry" />
        </mxCell>
        <mxCell id="2jE7YgBl8K7fFeT1Dg3M-45" value="Заповніть форму для реєстрації" style="rounded=0;whiteSpace=wrap;html=1;" vertex="1" parent="2">
          <mxGeometry x="60" y="220" width="120" height="65" as="geometry" />
        </mxCell>
        <mxCell id="2jE7YgBl8K7fFeT1Dg3M-53" value="" style="endArrow=classic;html=1;rounded=0;entryX=0.5;entryY=0;entryDx=0;entryDy=0;exitX=0.5;exitY=1;exitDx=0;exitDy=0;strokeColor=light-dark(#000000,#FF0B0B);" edge="1" parent="2" source="5" target="7">
          <mxGeometry width="50" height="50" relative="1" as="geometry">
            <mxPoint x="389.5" y="182" as="sourcePoint" />
            <mxPoint x="200.5" y="256" as="targetPoint" />
          </mxGeometry>
        </mxCell>
        <mxCell id="2jE7YgBl8K7fFeT1Dg3M-51" value="" style="endArrow=classic;html=1;rounded=0;entryX=1;entryY=0.25;entryDx=0;entryDy=0;exitX=0.042;exitY=0.95;exitDx=0;exitDy=0;exitPerimeter=0;strokeColor=light-dark(#000000,#FF0B0B);" edge="1" parent="3" source="2jE7YgBl8K7fFeT1Dg3M-41" target="2jE7YgBl8K7fFeT1Dg3M-45">
          <mxGeometry width="50" height="50" relative="1" as="geometry">
            <mxPoint x="75" y="162" as="sourcePoint" />
            <mxPoint x="75" y="192" as="targetPoint" />
          </mxGeometry>
        </mxCell>
        <mxCell id="2jE7YgBl8K7fFeT1Dg3M-52" value="" style="endArrow=classic;html=1;rounded=0;entryX=0;entryY=0.5;entryDx=0;entryDy=0;exitX=1;exitY=0.5;exitDx=0;exitDy=0;strokeColor=light-dark(#000000,#FF0B0B);" edge="1" parent="3" source="7" target="2jE7YgBl8K7fFeT1Dg3M-41">
          <mxGeometry width="50" height="50" relative="1" as="geometry">
            <mxPoint x="95" y="172" as="sourcePoint" />
            <mxPoint x="-94" y="246" as="targetPoint" />
          </mxGeometry>
        </mxCell>
        <mxCell id="2jE7YgBl8K7fFeT1Dg3M-57" value="" style="edgeStyle=orthogonalEdgeStyle;rounded=0;orthogonalLoop=1;jettySize=auto;html=1;strokeColor=light-dark(#000000,#FF0B0B);" edge="1" parent="3" source="2jE7YgBl8K7fFeT1Dg3M-54" target="2jE7YgBl8K7fFeT1Dg3M-56">
          <mxGeometry relative="1" as="geometry" />
        </mxCell>
        <mxCell id="2jE7YgBl8K7fFeT1Dg3M-54" value="Перевірка реєстраційних даних" style="rounded=0;whiteSpace=wrap;html=1;" vertex="1" parent="3">
          <mxGeometry x="80" y="225" width="120" height="60" as="geometry" />
        </mxCell>
        <mxCell id="2jE7YgBl8K7fFeT1Dg3M-55" value="" style="endArrow=classic;html=1;rounded=0;entryX=0;entryY=0.5;entryDx=0;entryDy=0;exitX=1;exitY=0.5;exitDx=0;exitDy=0;strokeColor=light-dark(#000000,#FF0B0B);" edge="1" parent="3" source="2jE7YgBl8K7fFeT1Dg3M-45" target="2jE7YgBl8K7fFeT1Dg3M-54">
          <mxGeometry width="50" height="50" relative="1" as="geometry">
            <mxPoint x="115" y="192" as="sourcePoint" />
            <mxPoint x="-74" y="266" as="targetPoint" />
          </mxGeometry>
        </mxCell>
        <mxCell id="2jE7YgBl8K7fFeT1Dg3M-60" value="" style="edgeStyle=orthogonalEdgeStyle;rounded=0;orthogonalLoop=1;jettySize=auto;html=1;strokeColor=light-dark(#000000,#FF0B0B);" edge="1" parent="3" source="2jE7YgBl8K7fFeT1Dg3M-56" target="2jE7YgBl8K7fFeT1Dg3M-59">
          <mxGeometry relative="1" as="geometry" />
        </mxCell>
        <mxCell id="2jE7YgBl8K7fFeT1Dg3M-61" style="edgeStyle=orthogonalEdgeStyle;rounded=0;orthogonalLoop=1;jettySize=auto;html=1;exitX=1;exitY=0.5;exitDx=0;exitDy=0;entryX=1;entryY=0.5;entryDx=0;entryDy=0;strokeColor=light-dark(#000000,#FF0B0B);" edge="1" parent="3" source="2jE7YgBl8K7fFeT1Dg3M-56" target="2jE7YgBl8K7fFeT1Dg3M-41">
          <mxGeometry relative="1" as="geometry">
            <Array as="points">
              <mxPoint x="255" y="350" />
              <mxPoint x="255" y="135" />
            </Array>
          </mxGeometry>
        </mxCell>
        <mxCell id="2jE7YgBl8K7fFeT1Dg3M-56" value="" style="rhombus;whiteSpace=wrap;html=1;rounded=0;" vertex="1" parent="3">
          <mxGeometry x="110" y="322" width="60" height="55" as="geometry" />
        </mxCell>
        <mxCell id="2jE7YgBl8K7fFeT1Dg3M-58" value="Valid" style="text;html=1;align=center;verticalAlign=middle;resizable=0;points=[];autosize=1;strokeColor=none;fillColor=none;" vertex="1" parent="3">
          <mxGeometry x="90" y="377" width="50" height="30" as="geometry" />
        </mxCell>
        <mxCell id="2jE7YgBl8K7fFeT1Dg3M-63" style="edgeStyle=orthogonalEdgeStyle;rounded=0;orthogonalLoop=1;jettySize=auto;html=1;exitX=0.5;exitY=1;exitDx=0;exitDy=0;entryX=0.5;entryY=0;entryDx=0;entryDy=0;strokeColor=light-dark(#000000,#FF0B0B);" edge="1" parent="3" source="2jE7YgBl8K7fFeT1Dg3M-59" target="2jE7YgBl8K7fFeT1Dg3M-64">
          <mxGeometry relative="1" as="geometry">
            <mxPoint x="145" y="512" as="targetPoint" />
          </mxGeometry>
        </mxCell>
        <mxCell id="2jE7YgBl8K7fFeT1Dg3M-59" value="Зберігання даних у системі" style="whiteSpace=wrap;html=1;rounded=0;" vertex="1" parent="3">
          <mxGeometry x="80" y="422" width="120" height="60" as="geometry" />
        </mxCell>
        <mxCell id="2jE7YgBl8K7fFeT1Dg3M-62" value="Invalid" style="text;html=1;align=center;verticalAlign=middle;resizable=0;points=[];autosize=1;strokeColor=none;fillColor=none;" vertex="1" parent="3">
          <mxGeometry x="185" y="322" width="60" height="30" as="geometry" />
        </mxCell>
        <mxCell id="2jE7YgBl8K7fFeT1Dg3M-64" value="" style="ellipse;shape=startState;fillColor=light-dark(#000000,#FF0B0B);strokeColor=#ff0000;" vertex="1" parent="3">
          <mxGeometry x="125" y="512" width="30" height="28" as="geometry" />
        </mxCell>
      </root>
    </mxGraphModel>
  </diagram>
</mxfile>
